<?xml version="1.0" standalone="no"?>
<!DOCTYPE svg PUBLIC "-//W3C//DTD SVG 20010904//EN"
 "http://www.w3.org/TR/2001/REC-SVG-20010904/DTD/svg10.dtd">
<svg version="1.0" xmlns="http://www.w3.org/2000/svg"
 width="462.000000pt" height="462.000000pt" viewBox="0 0 462.000000 462.000000"
 preserveAspectRatio="xMidYMid meet">
<metadata>
Created by potrace 1.14, written by Peter Selinger 2001-2017
</metadata>
<g transform="translate(0.000000,462.000000) scale(0.100000,-0.100000)"
fill="#000000" stroke="none">
<path d="M2740 4055 c-371 -5 -680 -13 -687 -18 -6 -4 -14 -26 -17 -50 -5 -37
-13 -833 -16 -1527 -1 -266 -4 -293 -29 -288 -12 3 -17 20 -22 78 -7 76 -12
607 -13 1345 -1 226 -5 417 -9 426 -7 15 -52 17 -410 23 -221 4 -633 6 -916 4
l-514 -3 -18 -25 c-14 -20 -18 -46 -20 -120 -1 -53 -8 -113 -16 -135 -11 -32
-16 -177 -23 -730 -6 -379 -12 -717 -16 -750 -5 -56 -3 -66 30 -128 20 -37 36
-75 36 -85 0 -9 -12 -42 -26 -72 l-26 -55 -5 -657 c-3 -362 -2 -669 1 -684 13
-50 51 -56 325 -50 135 3 547 8 916 11 369 3 676 8 683 10 11 4 12 135 9 702
-4 637 -9 759 -31 828 -6 16 0 24 28 39 40 21 58 17 82 -19 13 -21 14 -30 5
-53 -18 -43 -11 -1490 7 -1501 20 -12 1819 -2 1868 10 26 7 45 19 51 32 6 13
8 108 5 222 -4 178 -6 203 -24 228 -15 21 -27 27 -58 27 -63 0 -92 15 -88 48
3 26 5 27 76 30 65 3 74 5 81 25 5 12 9 193 10 402 1 423 6 485 36 485 20 0
26 -30 22 -111 -2 -41 -1 -157 2 -259 l6 -185 34 -50 c19 -27 53 -66 75 -85
69 -60 146 -144 146 -161 0 -17 -19 -29 -47 -29 -16 0 -107 90 -161 158 -18
23 -37 40 -42 37 -4 -3 -11 -47 -15 -98 -6 -79 -4 -99 10 -127 15 -29 16 -40
5 -90 -16 -77 -10 -474 7 -491 8 -8 50 -15 105 -17 51 -2 98 -8 103 -12 6 -3
69 -3 140 1 72 4 151 8 178 8 l47 1 0 1745 0 1745 -32 0 c-18 0 -147 3 -287 7
-189 4 -252 3 -247 -6 4 -7 38 -11 87 -11 63 0 81 -3 86 -15 3 -9 4 -18 2 -20
-2 -2 -47 -5 -99 -7 l-95 -3 -5 -46 c-3 -25 -5 -290 -4 -588 2 -392 6 -546 14
-556 9 -11 8 -34 -1 -97 -7 -46 -14 -145 -15 -221 -1 -76 -4 -140 -7 -144 -3
-3 -13 -3 -22 0 -13 5 -15 30 -15 155 0 82 -3 151 -6 154 -3 3 -6 307 -7 674
l-2 669 -72 3 c-53 2 -73 7 -73 16 0 15 21 26 51 26 10 0 19 4 19 10 0 11
-125 10 -1150 -5z"/>
</g>
</svg>
